<?xml version="1.0" encoding="UTF-8"?>
<svg width="350px" height="120px" viewBox="0 0 350 120" version="1.1" xmlns="http://www.w3.org/2000/svg" xmlns:xlink="http://www.w3.org/1999/xlink">
    <!-- Generator: Sketch 60.1 (88133) - https://sketch.com -->
    <title>Icon</title>
    <desc>Created with Sketch.</desc>
    <g id="Icon" stroke="none" stroke-width="1" fill="none" fill-rule="evenodd">
        <g id="registration">
            <rect id="Rectangle" fill="#008EBD" x="0" y="0" width="350" height="120"></rect>
            <path d="M174.953655,20.0079616 C196.836235,19.9814765 214.624946,37.7251125 214.652816,59.6090187 C214.679301,81.4915991 196.935665,99.2803101 175.051759,99.3081802 C153.169179,99.3346652 135.380468,81.5910292 135.352597,59.7071231 C135.326112,37.8245427 153.069748,20.0358317 174.953655,20.0079616 Z" id="Path" stroke="#FFFFFF" stroke-width="2.65146982"></path>
            <g id="Group" transform="translate(156.110984, 35.794843)" fill="#FFFFFF">
                <path d="M16.3741519,0.483893242 C22.204734,-0.893545328 28.0565279,2.7230595 29.4326407,8.55231589 C30.8100793,14.382898 27.1934744,20.2346919 21.364218,21.6108047 C15.5336359,22.9882433 9.68184204,19.3716385 8.3057292,13.5410564 C6.92829063,7.71179996 10.5448955,1.86000608 16.3741519,0.483893242 Z" id="Path"></path>
                <path d="M36.8567562,31.9263481 C36.652593,27.5925206 33.9812372,23.9189092 30.2758081,22.4407148 C27.1987774,25.0497611 23.2228984,26.6300371 18.8718364,26.6300371 C14.5459634,26.6300371 10.587319,25.0683214 7.51691693,22.4857898 C7.34457139,22.5560537 7.16957438,22.6183633 7.00120605,22.6979074 C6.93624504,22.7283993 6.87128403,22.7602169 6.80632302,22.7920345 C5.73645495,23.3236542 4.766017,24.0422026 3.93478121,24.9092332 C3.88440328,24.9609369 3.83667682,25.0139662 3.7862989,25.0669956 C2.12250159,26.8752981 1.05528499,29.2854841 0.928014436,31.9422569 C0.920060026,32.1185796 0.920060026,32.2975538 0.920060026,32.4778538 L0.920060026,43.633913 C0.920060026,43.8619394 1.13350335,43.8102358 1.35224961,43.8102358 L36.5518372,43.8102358 C36.7705834,43.8102358 36.8607334,43.8632652 36.8607334,43.633913 L36.8607334,32.4778538 C36.8620591,32.2975538 36.8660363,32.1039965 36.8567562,31.9263481 L36.8567562,31.9263481 Z" id="Path" fill-rule="nonzero"></path>
            </g>
            <g id="Group" transform="translate(198.225716, 66.286745)">
                <path d="M16.4071847,0.58330867 C25.3585468,0.571391745 32.63418,7.82979037 32.6461232,16.7824782 C32.6567175,25.7338403 25.3983189,33.0094735 16.4469568,33.0214167 C7.49559469,33.032011 0.218635782,25.7736124 0.208015214,16.8222503 C0.196098289,7.87088815 7.45449691,0.593929239 16.4071847,0.58330867 Z" id="Path" stroke="#FFFFFF" stroke-width="2.65146982" fill="#008EBD"></path>
                <text id="?" font-family="OpenSans-Bold, Open Sans" font-size="21" font-weight="bold" letter-spacing="-0.164999882" fill="#FFFFFF">
                    <tspan x="12.3477512" y="22.7132546">?</tspan>
                </text>
            </g>
        </g>
    </g>
</svg>